<svg id="Layer_1" data-name="Layer 1" xmlns="http://www.w3.org/2000/svg" viewBox="0 0 400 123.38"><path d="M310.31,101.34c0,7.23-5,13.41-12.24,13.41-5.36,0-8.67-3.7-8.67-8.75,0-7.19,5-13.41,12.24-13.41C307.35,92.59,310.31,96.68,310.31,101.34Zm-15.68,4.53c0,2.91,1.52,5,4.14,5,3.79,0,6.31-5.23,6.31-9.46,0-2.18-1-4.88-4.05-4.88C297,96.5,294.63,101.91,294.63,105.87Zm50.19-4.53c0,7.23-5,13.41-12.24,13.41-5.35,0-8.66-3.7-8.66-8.75,0-7.19,5-13.41,12.24-13.41C341.86,92.59,344.82,96.68,344.82,101.34Zm-15.68,4.53c0,2.91,1.53,5,4.14,5,3.79,0,6.32-5.23,6.32-9.46,0-2.18-1-4.88-4.05-4.88C331.5,96.5,329.14,101.91,329.14,105.87ZM317.9,86.12l-5.36,28.15h5.06L323,86.12Zm-81.76,6.51a13.37,13.37,0,0,0-13.46,13.63c0,5,3.27,8.45,8.58,8.45a14.17,14.17,0,0,0,6.26-1.3l.83-4.4a11.33,11.33,0,0,1-5.69,1.6c-2.83,0-4.66-1.78-4.66-5,0-4.44,3.09-8.93,8-8.93a7.68,7.68,0,0,1,3.9,1l.81-4.22A11.74,11.74,0,0,0,236.14,92.63Zm-29,15.94a5.85,5.85,0,0,1-.57-3c8.19.18,13.89-1.57,13.89-7,0-3.57-2.65-6-6.84-6-7.31,0-12,7-12,13.36,0,5.19,2.83,8.8,8.71,8.8a16.42,16.42,0,0,0,8-2l.87-4.56a12.81,12.81,0,0,1-7.71,2.55A4.67,4.67,0,0,1,207.17,108.57ZM213,96.37c1.62,0,2.7.83,2.7,2.18,0,2.57-3.35,3.27-8.58,3.22C207.73,99.2,209.82,96.37,213,96.37Zm148.15-3.78c-9,0-13.64,8-13.64,14.68,0,3.79,1.88,7.5,6.41,7.5A8.53,8.53,0,0,0,361,111l-.41,1.86c-1,4.92-3.57,6.49-6.88,6.49a12.33,12.33,0,0,1-5.58-1.27l-.78,4.14a15.09,15.09,0,0,0,6.25,1.18,12.45,12.45,0,0,0,7.92-2.36c2.43-2,3.62-5.31,4.41-9.44l1.92-9.62a17.66,17.66,0,0,0,.43-3.66C368.25,94.46,365.6,92.59,361.15,92.59Zm1.61,9.1-.39,2c-.87,4.28-3.57,7-6.19,7-2.35,0-3.35-2-3.35-4.27,0-4.19,2.92-9.89,7.36-9.89a2.52,2.52,0,0,1,2.83,2.7A8.38,8.38,0,0,1,362.76,101.69Zm-76.85-3.27c0-4-2.36-5.83-5.41-5.83A9.16,9.16,0,0,0,272.76,97l.78-4.09H269l-4.06,21.33H270l1.87-9.79c.92-5,3.83-7.76,6.14-7.76,2,0,2.66,1.26,2.66,3a14.09,14.09,0,0,1-.25,2.53l-2.28,12h5.05l2.37-12.36A19.69,19.69,0,0,0,285.91,98.42Zm-29.37-5.83a9,9,0,0,0-7.06,3.51l1.91-10H246.3l-5.36,28.15H246l1.87-9.79h0c.92-5,3.83-7.76,6.14-7.76,2,0,2.66,1.26,2.66,3a14.09,14.09,0,0,1-.25,2.53l-2.28,12h5.06l2.36-12.36a19.69,19.69,0,0,0,.38-3.49C261.94,94.41,259.58,92.59,256.54,92.59Zm-58.87-5h-4.94l-1.08,5.46h-2.83L188.08,97h2.83l-1.83,9.45a20.27,20.27,0,0,0-.43,3.92c0,2.44,1.52,4.36,5,4.36a10,10,0,0,0,3.31-.44h0l.76-4a9.66,9.66,0,0,1-2,.19,1.67,1.67,0,0,1-1.87-1.92,14.8,14.8,0,0,1,.39-3L195.88,97h4.75l.78-3.92h-4.75Zm191.44,22.76L389,111H387.7l-.63,3.32h-.64l.64-3.32h-1.3l.11-.59Zm4.77,0-.74,3.91h-.64l.52-2.74-1.59,1.86h-.38l-.88-1.86-.52,2.74H389l.75-3.91h.57l1.06,2.24,1.92-2.24ZM368.05,122.2c3.89,1.8,7.72,1,10.49-4h0l14.19-25.29h-5.4l-8.06,15.78-1.95-15.78H372l3.78,20.76L374.13,117c-1.49,2.54-4.08,1.71-5.29,1ZM209.54,49.63A15.54,15.54,0,0,1,205,61.11c-4,4-10.57,6.19-18.44,6.13-5.64-.09-11.35-1.47-14.57-3.45l2.14-11.31A32.44,32.44,0,0,0,188,56.39c3.67,0,6.14-1.69,6.14-4.41,0-2.47-1.74-4.19-6.18-6.36-7-3.51-10.53-8-10.53-13.21,0-10.33,8.79-17.31,22-17.31,7,0,11.52,1.65,14,3.27l-2.14,11.28c-2-1.5-7.08-3.59-12.62-3.59-3.84,0-6.35,1.61-6.35,4.31,0,1.93,1.92,3.66,6,5.64C203.57,38.65,209.54,42.56,209.54,49.63ZM118.08,15.21c-18.59,0-32.59,13.57-32.59,31.57,0,12.43,8.26,20.46,21.07,20.46,5.48,0,10.81-1,14.24-2.67l2.35-12.41a26.19,26.19,0,0,1-12.41,3.21c-4.68,0-9.71-2.69-9.71-10.22,0-8.87,6.29-18.07,16.85-18.07a16.06,16.06,0,0,1,8.18,2L128.36,17A28.63,28.63,0,0,0,118.08,15.21ZM378.72,55.68a33.08,33.08,0,0,0,17.43-4.92l-2.38,12.48c-7.07,3.61-15.37,4-18.61,4-13.8,0-21.69-7.67-21.69-21.07a33,33,0,0,1,7.78-21.24,27.67,27.67,0,0,1,21.35-9.82c10.44,0,17.4,6.06,17.4,15.05a13.63,13.63,0,0,1-4,10.18c-5,4.86-17.27,7.58-28.47,5.39C367,52,371.73,55.68,378.72,55.68ZM369.14,36.1c8.7.08,13.6-.8,15.73-2.92,2.32-2.3,1.59-7.22-4.11-7.22C374.34,26,370.26,31.22,369.14,36.1ZM346,15.21c-18.59,0-32.59,13.57-32.59,31.57,0,12.43,8.26,20.46,21.07,20.46,5.48,0,10.81-1,14.24-2.67L351,52.16a26.19,26.19,0,0,1-12.41,3.21c-4.68,0-9.71-2.69-9.71-10.22,0-8.87,6.29-18.07,16.85-18.07a16.06,16.06,0,0,1,8.18,2L356.24,17A28.63,28.63,0,0,0,346,15.21Zm-35,23-5.35,28H291.41l1.84-9.63c-2,6-6.82,10.75-14.95,10.75-9.85,0-14.31-8.75-14.31-17.5,0-10,3.9-19.8,10.45-26.35a28.3,28.3,0,0,1,20.47-8.38c6,0,10.47,1.76,13.26,5.14C312.3,25.26,312,32.77,310.93,38.23Zm-13.64-6.44c-.17-3.53-2-5.43-5.31-5.43-7,0-13,12-13,20.41,0,5.23,1.94,8.49,5.31,8.49,5.4,0,10.05-5.64,11.65-13.91C296.47,38.56,297.39,34,297.29,31.79ZM83.05,38.23l-5.35,28H63.53l1.84-9.63c-2,6-6.82,10.75-14.94,10.75-9.86,0-14.31-8.75-14.32-17.5,0-10,3.9-19.8,10.45-26.35A28.3,28.3,0,0,1,67,15.11c6,0,10.47,1.76,13.26,5.14C84.42,25.26,84.08,32.77,83.05,38.23ZM69.41,31.79c-.17-3.53-2-5.43-5.31-5.43-7,0-13,12-13,20.41,0,5.23,1.94,8.49,5.31,8.49,5.4,0,10.05-5.64,11.65-13.91C68.59,38.56,69.51,34,69.41,31.79ZM263,34.14c0,12.16-5.84,24.63-16.36,30.24a23.56,23.56,0,0,1-10.79,3c-5.26,0-8.22-2-9.9-5l-3.77,19.91H207.35L219.94,16H233l-1.52,8c3.69-5.37,9.15-9,15.34-9C256.64,15.11,263,22.54,263,34.14Zm-15.43,1.12c0-2.35-.55-8.08-6-8.08s-10.19,6.29-12,15.84c-.62,3.26-2.35,13.06,4.47,13.06C241.85,56.08,247.57,45,247.57,35.26ZM20.66,27.15,22.78,16H9.71L0,67.11H14.83l4-21.07c2.36-12.41,9.49-17.38,19.63-15.85L41.36,15A20.54,20.54,0,0,0,20.66,27.15Zm119,39.07,5.11-26.87,10.51,26.87h16L160.33,39.13,180.13,16H163.94l-19.1,22.85L152.23,0H137.5L124.91,66.22Z"/></svg>